<svg width="80" height="85" viewBox="0 0 80 85" fill="none" xmlns="http://www.w3.org/2000/svg">
<circle cx="40" cy="40" r="39.5" fill="white" stroke="black"/>
<path d="M39.6278 57.4773C37.3778 57.4773 35.3722 57.0909 33.6108 56.3182C31.8608 55.5455 30.4688 54.4716 29.4347 53.0966C28.4119 51.7102 27.8551 50.1023 27.7642 48.2727H32.0597C32.1506 49.3977 32.5369 50.3693 33.2188 51.1875C33.9006 51.9943 34.7926 52.6193 35.8949 53.0625C36.9972 53.5057 38.2188 53.7273 39.5597 53.7273C41.0597 53.7273 42.3892 53.4659 43.5483 52.9432C44.7074 52.4205 45.6165 51.6932 46.2756 50.7614C46.9347 49.8295 47.2642 48.75 47.2642 47.5227C47.2642 46.2386 46.946 45.108 46.3097 44.1307C45.6733 43.142 44.7415 42.3693 43.5142 41.8125C42.2869 41.2557 40.7869 40.9773 39.0142 40.9773H36.2188V37.2273H39.0142C40.4006 37.2273 41.6165 36.9773 42.6619 36.4773C43.7188 35.9773 44.5426 35.2727 45.1335 34.3636C45.7358 33.4545 46.0369 32.3864 46.0369 31.1591C46.0369 29.9773 45.7756 28.9489 45.2528 28.0739C44.7301 27.1989 43.9915 26.517 43.0369 26.0284C42.0938 25.5398 40.9801 25.2955 39.696 25.2955C38.4915 25.2955 37.3551 25.517 36.2869 25.9602C35.2301 26.392 34.3665 27.0227 33.696 27.8523C33.0256 28.6705 32.6619 29.6591 32.6051 30.8182H28.5142C28.5824 28.9886 29.1335 27.3864 30.1676 26.0114C31.2017 24.625 32.554 23.5455 34.2244 22.7727C35.9063 22 37.7528 21.6136 39.7642 21.6136C41.9233 21.6136 43.7756 22.0511 45.321 22.9261C46.8665 23.7898 48.054 24.9318 48.8835 26.3523C49.7131 27.7727 50.1278 29.3068 50.1278 30.9545C50.1278 32.9205 49.6108 34.5966 48.5767 35.983C47.554 37.3693 46.1619 38.3295 44.4006 38.8636V39.1364C46.6051 39.5 48.3267 40.4375 49.5653 41.9489C50.804 43.4489 51.4233 45.3068 51.4233 47.5227C51.4233 49.4205 50.9063 51.125 49.8722 52.6364C48.8494 54.1364 47.4517 55.3182 45.679 56.1818C43.9063 57.0455 41.8892 57.4773 39.6278 57.4773Z" fill="black"/>
</svg>
