<svg width="80" height="85" viewBox="0 0 80 85" fill="none" xmlns="http://www.w3.org/2000/svg">
<circle cx="40" cy="40" r="39.5" fill="white" stroke="black"/>
<path d="M28.0824 57V53.9318L39.6051 41.3182C40.9574 39.8409 42.071 38.5568 42.946 37.4659C43.821 36.3636 44.4688 35.3295 44.8892 34.3636C45.321 33.3864 45.5369 32.3636 45.5369 31.2955C45.5369 30.0682 45.2415 29.0057 44.6506 28.108C44.071 27.2102 43.2756 26.517 42.2642 26.0284C41.2528 25.5398 40.1165 25.2955 38.8551 25.2955C37.5142 25.2955 36.3438 25.5739 35.3438 26.1307C34.3551 26.6761 33.5881 27.4432 33.0426 28.4318C32.5085 29.4205 32.2415 30.5795 32.2415 31.9091H28.2188C28.2188 29.8636 28.6903 28.0682 29.6335 26.5227C30.5767 24.9773 31.8608 23.7727 33.4858 22.9091C35.1222 22.0455 36.9574 21.6136 38.9915 21.6136C41.0369 21.6136 42.8494 22.0455 44.429 22.9091C46.0085 23.7727 47.2472 24.9375 48.1449 26.4034C49.0426 27.8693 49.4915 29.5 49.4915 31.2955C49.4915 32.5795 49.2585 33.8352 48.7926 35.0625C48.3381 36.2784 47.5426 37.6364 46.4062 39.1364C45.2812 40.625 43.7188 42.4432 41.7188 44.5909L33.8778 52.9773V53.25H50.1051V57H28.0824Z" fill="black"/>
</svg>
